<svg xmlns="http://www.w3.org/2000/svg" viewBox="0 0 271.96 120.01"><defs><style>.\31 26eed79-0bb5-4e7c-8210-4d506036881f{fill:#009191;}.\37 2412686-b6ff-4403-8e35-007b99f31660,.e2234308-486a-42b4-8b9e-9aade3565f2b{fill:#00a9ac;}.\31 3f236de-7899-4433-b86a-ddaa6a28e219{font-size:42px;fill:#696663;font-family:Rubik-Bold, Rubik;font-weight:700;letter-spacing:0.06em;}.\36 539eb89-0d75-47d1-babc-bc4669b2d168{letter-spacing:0.06em;}.\33 bebf05a-e7e1-4a6c-8708-04d32005dec4{letter-spacing:0.07em;}.\38 02f7937-3d26-4e91-90b8-578b2ad78008{letter-spacing:0.01em;}.\32 bd4f90f-47a9-423d-a0d6-3a754232159e{letter-spacing:0.07em;}.\38 b033a1b-db94-4540-ad3b-221e1644a9bd{letter-spacing:0.07em;}.b3c6c212-b96b-44d5-8304-5a02bf712d92{letter-spacing:0em;}.\37 317c87c-6682-4a54-aa1c-d6682385e1d0{letter-spacing:0.05em;}.\34 56f62b1-9251-4977-a45b-46701ae5ec6f{letter-spacing:0.07em;}.e2234308-486a-42b4-8b9e-9aade3565f2b{letter-spacing:0.07em;}.\39 0d578e5-b95b-4c6a-ba13-556c77ad6a8c{letter-spacing:0.06em;}</style></defs><title>Asset 1</title><g id="4e163378-0934-44bf-a149-c6b0b2f9b71c" data-name="Layer 2"><g id="f8799077-2662-4a96-927a-4417e1f50c60" data-name="Layer 2"><path class="126eed79-0bb5-4e7c-8210-4d506036881f" d="M100,6.87,33.4,98.1A21.72,21.72,0,0,1,15.86,107H0L66.6,15.78A21.72,21.72,0,0,1,84.14,6.87Z"/><path class="126eed79-0bb5-4e7c-8210-4d506036881f" d="M43.48,17.62h0A10.86,10.86,0,0,1,32.62,28.48H13.5a2.6,2.6,0,0,0-2.6,2.61V61.28A10.87,10.87,0,0,1,0,72.15H0V23.05a5.44,5.44,0,0,1,5.44-5.43Z"/><path class="72412686-b6ff-4403-8e35-007b99f31660" d="M43.48,6.76V17.62h-30a2.6,2.6,0,0,0-2.6,2.61V39.56A10.87,10.87,0,0,1,0,50.42H0V12.19A5.44,5.44,0,0,1,5.47,6.76Z"/><path class="126eed79-0bb5-4e7c-8210-4d506036881f" d="M45.69,107h0A10.86,10.86,0,0,1,56.55,96.15H75.67a2.61,2.61,0,0,0,2.61-2.61V74.21A10.86,10.86,0,0,1,89.14,63.35h0v38.23A5.43,5.43,0,0,1,83.71,107Z"/><path class="72412686-b6ff-4403-8e35-007b99f31660" d="M56.55,107h0A10.86,10.86,0,0,1,67.41,96.15H86.53a2.61,2.61,0,0,0,2.61-2.61V63.35H100v38.23A5.43,5.43,0,0,1,94.57,107Z"/><path class="72412686-b6ff-4403-8e35-007b99f31660" d="M87,6.87,20.37,98.1A21.73,21.73,0,0,1,2.82,107H0L66.6,15.78A21.72,21.72,0,0,1,84.14,6.87Z"/><text class="13f236de-7899-4433-b86a-ddaa6a28e219" transform="translate(118.04 35.7)">F<tspan class="6539eb89-0d75-47d1-babc-bc4669b2d168" x="28.43" y="0">U</tspan><tspan class="3bebf05a-e7e1-4a6c-8708-04d32005dec4" x="61.99" y="0">L</tspan><tspan class="802f7937-3d26-4e91-90b8-578b2ad78008" x="90.12" y="0">L</tspan><tspan class="2bd4f90f-47a9-423d-a0d6-3a754232159e" x="115.94" y="0">-</tspan><tspan class="8b033a1b-db94-4540-ad3b-221e1644a9bd"><tspan x="0" y="36">S</tspan><tspan class="b3c6c212-b96b-44d5-8304-5a02bf712d92" x="31.38" y="36">T</tspan><tspan class="7317c87c-6682-4a54-aa1c-d6682385e1d0" x="57.98" y="36">A</tspan><tspan class="456f62b1-9251-4977-a45b-46701ae5ec6f" x="90.24" y="36">C</tspan><tspan class="2bd4f90f-47a9-423d-a0d6-3a754232159e" x="122.5" y="36">K</tspan></tspan><tspan class="e2234308-486a-42b4-8b9e-9aade3565f2b"><tspan x="0" y="72">A</tspan><tspan class="90d578e5-b95b-4c6a-ba13-556c77ad6a8c" x="33.07" y="72">M</tspan><tspan class="2bd4f90f-47a9-423d-a0d6-3a754232159e" x="70.89" y="72">R</tspan></tspan></text></g></g></svg>