<svg xmlns="http://www.w3.org/2000/svg" viewBox="0 0 636.77 241.97"><title>Asset 3</title><g id="Layer_2" data-name="Layer 2"><g id="preview"><path d="M238.63,16.38,79.71,234.09a51.82,51.82,0,0,1-41.87,21.27H0L158.92,37.66a51.83,51.83,0,0,1,41.87-21.28Z" transform="translate(0 -15.03)" style="fill:#009191"/><path d="M103.76,42h0A25.91,25.91,0,0,1,77.84,68H32.22A6.23,6.23,0,0,0,26,74.18v72.06A25.91,25.91,0,0,1,.08,172.16h0V55A13,13,0,0,1,13,42Z" transform="translate(0 -15.03)" style="fill:#009191"/><path d="M103.76,16.12V42H32.22A6.23,6.23,0,0,0,26,48.26V94.4A25.91,25.91,0,0,1,.08,120.32h0V29.08a13,13,0,0,1,13-13Z" transform="translate(0 -15.03)" style="fill:#00a9ac"/><path d="M109,255.36h0A25.92,25.92,0,0,1,135,229.44h45.62a6.22,6.22,0,0,0,6.22-6.22V177.09a25.91,25.91,0,0,1,25.92-25.92h0V242.4a13,13,0,0,1-13,13Z" transform="translate(0 -15.03)" style="fill:#009191"/><path d="M135,255.36h0a25.92,25.92,0,0,1,25.92-25.92h45.62a6.22,6.22,0,0,0,6.22-6.22V151.17h25.92V242.4a13,13,0,0,1-13,13Z" transform="translate(0 -15.03)" style="fill:#00a9ac"/><path d="M207.52,16.38,48.61,234.09A51.84,51.84,0,0,1,6.74,255.36H0L158.92,37.66a51.83,51.83,0,0,1,41.87-21.28Z" transform="translate(0 -15.03)" style="fill:#00a9ac"/><path d="M339.11,15.83a2.59,2.59,0,0,1,.8,1.91V28.36a2.73,2.73,0,0,1-2.7,2.71h-30V44.8h28a2.73,2.73,0,0,1,2.71,2.7V58.13a2.73,2.73,0,0,1-2.71,2.7h-28V82.48a2.73,2.73,0,0,1-2.7,2.71H291.41a2.73,2.73,0,0,1-2.71-2.71V17.74A2.73,2.73,0,0,1,291.41,15h45.8A2.61,2.61,0,0,1,339.11,15.83Z" transform="translate(0 -15.03)" style="fill:#696663"/><path d="M415,15.83a2.63,2.63,0,0,1,.8,1.91v40A29.67,29.67,0,0,1,412,73.16a24.4,24.4,0,0,1-10.67,9.72,40.49,40.49,0,0,1-32.07,0,24.14,24.14,0,0,1-10.63-9.72,30,30,0,0,1-3.75-15.43v-40a2.73,2.73,0,0,1,2.7-2.71h13.13a2.73,2.73,0,0,1,2.71,2.71V57.33q0,6.11,3.05,9.47t8.87,3.36q5.82,0,8.87-3.36t3.06-9.47V17.74A2.73,2.73,0,0,1,400,15h13.13A2.61,2.61,0,0,1,415,15.83Z" transform="translate(0 -15.03)" style="fill:#696663"/><path d="M485.78,70a2.61,2.61,0,0,1,.8,1.9V82.48a2.73,2.73,0,0,1-2.71,2.71h-46.4a2.75,2.75,0,0,1-2.71-2.71V17.74A2.75,2.75,0,0,1,437.47,15H450.6a2.75,2.75,0,0,1,2.71,2.71V69.15h30.56A2.6,2.6,0,0,1,485.78,70Z" transform="translate(0 -15.03)" style="fill:#696663"/><path d="M552,70a2.61,2.61,0,0,1,.8,1.9V82.48a2.73,2.73,0,0,1-2.71,2.71h-46.4A2.73,2.73,0,0,1,501,82.48V17.74A2.73,2.73,0,0,1,503.69,15h13.13a2.73,2.73,0,0,1,2.7,2.71V69.15h30.57A2.6,2.6,0,0,1,552,70Z" transform="translate(0 -15.03)" style="fill:#696663"/><path d="M561.32,57a2.6,2.6,0,0,1-.81-1.91V45a2.77,2.77,0,0,1,2.71-2.71h31.57A2.75,2.75,0,0,1,597.5,45V55.12a2.73,2.73,0,0,1-2.71,2.71H563.22A2.61,2.61,0,0,1,561.32,57Z" transform="translate(0 -15.03)" style="fill:#696663"/><path d="M343.57,121.23a2,2,0,0,1-1.45.66H329a5.73,5.73,0,0,1-2.21-.35,7.45,7.45,0,0,1-1.8-1.26c-.13-.13-.57-.58-1.3-1.35a9.59,9.59,0,0,0-3.46-2.06,15.24,15.24,0,0,0-5.46-.9,18.45,18.45,0,0,0-7.07,1.16,4,4,0,0,0-2.75,4,3.61,3.61,0,0,0,1.7,3.16,17.55,17.55,0,0,0,5.26,2.06q3.56.9,12.38,2.7,11.33,2.31,16.64,7.22t5.31,14a18,18,0,0,1-4,11.58,24.93,24.93,0,0,1-11,7.61,45.15,45.15,0,0,1-16,2.66,39.23,39.23,0,0,1-15.64-3,28.71,28.71,0,0,1-11-7.82,16.4,16.4,0,0,1-4.21-9.92,2.12,2.12,0,0,1,.65-1.55,2,2,0,0,1,1.45-.65h13.13a5.62,5.62,0,0,1,3.81,1.4c.2.2.74.79,1.61,1.75a11.14,11.14,0,0,0,4,2.61,15.58,15.58,0,0,0,6.26,1.15q12.42,0,12.43-5.31a3.38,3.38,0,0,0-1.76-2.86,16.53,16.53,0,0,0-5-1.95q-3.21-.8-10.22-2.31l-4.51-.9q-10.23-2.21-15-7.36t-4.81-13.79a18.27,18.27,0,0,1,3.5-10.77,24.29,24.29,0,0,1,10-7.92,38.3,38.3,0,0,1,29.72.1,29.36,29.36,0,0,1,10.57,7.67q3.87,4.61,4.06,9A2.09,2.09,0,0,1,343.57,121.23Z" transform="translate(0 -15.03)" style="fill:#696663"/><path d="M416.12,101.74a2.6,2.6,0,0,1,.81,1.9v10.63a2.75,2.75,0,0,1-2.71,2.7H396.58v51.42a2.75,2.75,0,0,1-2.71,2.71H380.74a2.75,2.75,0,0,1-2.7-2.71V117H360.4a2.75,2.75,0,0,1-2.71-2.7V103.64a2.75,2.75,0,0,1,2.71-2.7h53.82A2.61,2.61,0,0,1,416.12,101.74Z" transform="translate(0 -15.03)" style="fill:#696663"/><path d="M488.4,167.39a4.76,4.76,0,0,1,.4,1.5,2.24,2.24,0,0,1-2.21,2.21H474a4.18,4.18,0,0,1-2.65-.76,3.54,3.54,0,0,1-1.26-1.75l-2.8-8.32H440.59l-2.81,8.32a3.51,3.51,0,0,1-1.25,1.75,4.21,4.21,0,0,1-2.66.76H421.25a2.24,2.24,0,0,1-2.21-2.21,4.5,4.5,0,0,1,.4-1.5l21.85-63.14a5.52,5.52,0,0,1,1.6-2.36,4.34,4.34,0,0,1,2.91-1H462a4.29,4.29,0,0,1,2.9,1,5.54,5.54,0,0,1,1.61,2.36ZM462,144.74l-8.12-24.06-8.12,24.06Z" transform="translate(0 -15.03)" style="fill:#696663"/><path d="M520.44,152.85q3,3.21,9.27,3.21c4,0,6.91-.77,8.72-2.3a12.4,12.4,0,0,0,3.8-5.62,6.63,6.63,0,0,1,1.21-2.3,3.1,3.1,0,0,1,2.2-.6h13.13a2.12,2.12,0,0,1,1.55.65,2.1,2.1,0,0,1,.66,1.55,21,21,0,0,1-4.26,12.38,28.55,28.55,0,0,1-11.28,9,36.79,36.79,0,0,1-15.73,3.31,34.23,34.23,0,0,1-16.24-3.66,27.21,27.21,0,0,1-10.72-9.82,28.4,28.4,0,0,1-4.21-13.68c-.14-3.21-.2-5.85-.2-7.92,0-2.47.06-5.78.2-9.92a27.67,27.67,0,0,1,4.11-13.68,27.17,27.17,0,0,1,10.77-9.83,34.64,34.64,0,0,1,16.29-3.65,36.93,36.93,0,0,1,15.73,3.3,28.73,28.73,0,0,1,11.28,9A21.09,21.09,0,0,1,561,124.59a2.24,2.24,0,0,1-2.21,2.21H545.64a3.1,3.1,0,0,1-2.2-.6,6.7,6.7,0,0,1-1.21-2.31,12.42,12.42,0,0,0-3.8-5.61c-1.81-1.54-4.71-2.31-8.72-2.31q-6.32,0-9.27,3.21a13.47,13.47,0,0,0-3.36,8.42c-.14,2.27-.2,5.08-.2,8.42s.06,6,.2,8.42A13.42,13.42,0,0,0,520.44,152.85Z" transform="translate(0 -15.03)" style="fill:#696663"/><path d="M636.77,168.89a2.25,2.25,0,0,1-2.21,2.21H618.62a4.13,4.13,0,0,1-2.2-.56,7.84,7.84,0,0,1-1.9-1.75l-18.95-23.85v23.45a2.75,2.75,0,0,1-2.7,2.71H579.74a2.75,2.75,0,0,1-2.71-2.71V103.64a2.73,2.73,0,0,1,2.71-2.7h13.13a2.73,2.73,0,0,1,2.7,2.7v21.15l17.64-21.65a9.31,9.31,0,0,1,1.61-1.6,4,4,0,0,1,2.4-.6h15.64a2.22,2.22,0,0,1,2.2,2.2,2.15,2.15,0,0,1-.3,1.11L610,134.51l26.45,33.28A1.73,1.73,0,0,1,636.77,168.89Z" transform="translate(0 -15.03)" style="fill:#696663"/><path d="M352.14,253.29a4.48,4.48,0,0,1,.4,1.51,2.12,2.12,0,0,1-.65,1.55,2.09,2.09,0,0,1-1.55.65H337.71a4.21,4.21,0,0,1-2.66-.75,3.51,3.51,0,0,1-1.25-1.75L331,246.18H304.33l-2.8,8.32a3.51,3.51,0,0,1-1.25,1.75,4.21,4.21,0,0,1-2.66.75H285a2.22,2.22,0,0,1-2.2-2.2,4.48,4.48,0,0,1,.4-1.51L305,190.15a5.4,5.4,0,0,1,1.6-2.35,4.26,4.26,0,0,1,2.91-1h16.23a4.27,4.27,0,0,1,2.91,1,5.49,5.49,0,0,1,1.6,2.35Zm-26.36-22.65-8.12-24-8.11,24Z" transform="translate(0 -15.03)" style="fill:#00a9ac"/><path d="M385.26,221.12V254.3a2.73,2.73,0,0,1-2.7,2.7H369.43a2.75,2.75,0,0,1-2.71-2.7V189.55a2.77,2.77,0,0,1,2.71-2.71h11.63a4.7,4.7,0,0,1,4.3,2.71l16.24,27.76,16.24-27.76a4.72,4.72,0,0,1,4.31-2.71h11.62a2.75,2.75,0,0,1,2.71,2.71V254.3a2.73,2.73,0,0,1-2.71,2.7H420.64a2.73,2.73,0,0,1-2.7-2.7V221.12l-9.42,16.54a7.53,7.53,0,0,1-1.56,1.8,3.23,3.23,0,0,1-2.15.7h-6.42a3.27,3.27,0,0,1-2.15-.7,7.28,7.28,0,0,1-1.55-1.8Z" transform="translate(0 -15.03)" style="fill:#00a9ac"/><path d="M506.76,192.61q7.41,5.76,7.41,17.19,0,14.53-11.92,20l12.42,23.85a2.54,2.54,0,0,1,.3,1.11,2.22,2.22,0,0,1-2.2,2.2H499.14a4.17,4.17,0,0,1-2.71-.75,6,6,0,0,1-1.5-1.95L483.8,232.85h-9.22V254.3a2.73,2.73,0,0,1-2.7,2.7H458.75a2.73,2.73,0,0,1-2.71-2.7V189.55a2.75,2.75,0,0,1,2.71-2.71h27.16Q499.34,186.84,506.76,192.61Zm-20.85,24.6q9.72,0,9.72-7.41t-9.72-7.42H474.58v14.83Z" transform="translate(0 -15.03)" style="fill:#00a9ac"/></g></g></svg>
